<svg xmlns="http://www.w3.org/2000/svg" width="223" height="65" fill="none" xmlns:v="https://vecta.io/nano"><path d="M.926 64.999L15.123 0h18.254L47.39 64.999H33.654l-2.869-13.615H17.837l-2.898 13.615H.926zm27.452-25.033l-4.035-19.148-4.076 19.148h8.111zm21.779 25.033V0l25.261.176S90.998 0 90.998 16.513c0 11.594-9.312 14.756-9.312 14.756s9.312 1.317 8.943 16.338c0 17.831-15.857 17.392-15.857 17.392H50.157zm15.949-53.756v14.669h5.624s3.688 0 3.688-7.203-4.425-7.466-4.425-7.466h-4.886zm0 42.601V37.418h4.886s4.886-.703 4.886 7.642-4.149 8.784-4.149 8.784h-5.624zm29.041 11.155V0l25.26.176S135.988 0 135.988 16.513c0 11.594-9.312 14.756-9.312 14.756s9.312 1.317 8.943 16.338c0 17.831-15.857 17.392-15.857 17.392H95.147zm15.95-53.756v14.669h5.624s3.687 0 3.687-7.203-4.425-7.466-4.425-7.466h-4.886zm0 42.601V37.418h4.886s4.886-.703 4.886 7.642-4.148 8.784-4.148 8.784h-5.624z" fill-rule="evenodd" fill="#c60c31"/><path d="M178.12.176l-13.275 42.601V65h-16.134V42.776L135.619 0l14.013.058 7.468 25.854L163.877.117l14.243.059zm44.806 0l-13.275 42.601V65h-16.135V42.776L180.425 0l14.013.058 7.468 25.854L208.683.117l14.243.059z" fill="#c60c31"/></svg>