<svg xmlns="http://www.w3.org/2000/svg" width="294" height="95" fill="none" xmlns:v="https://vecta.io/nano"><g clip-path="url(#A)" fill="#ee3524"><path d="M88.516 91.476v-9.927h-5.229v9.927h-2.358V79.258h9.96v12.218h-2.373zm6.191-1.135v4.505h-2.11V82.63h2.11v1.116c.614-.859 1.494-1.337 2.472-1.337 2.06 0 3.553 1.685 3.553 4.634s-1.494 4.651-3.553 4.651c-.945 0-1.826-.44-2.472-1.353zm3.834-3.298c0-1.52-.813-2.566-2.025-2.566a2.3 2.3 0 0 0-1.809 1.009v3.13a2.35 2.35 0 0 0 1.809 1.007c1.214.002 2.025-1.041 2.025-2.579zm3.055 4.433l1.858-3.204c-.913-.257-1.776-1.17-1.776-2.746 0-1.556.994-2.894 2.772-2.894h4.864v8.845h-2.107v-3.041h-1.643l-1.578 3.041-2.39-.002zm5.611-4.981V84.59h-2.424c-.581 0-.963.386-.963.934 0 .567.366.971.963.971h2.424zm11.122 4.981v-5.75l-2.143 5.75h-.963l-2.157-5.75v5.75h-2.109v-8.847h2.774l1.974 5.275 1.944-5.275h2.787v8.847h-2.107zm3.27-4.432c0-2.508 1.594-4.634 4.233-4.634 2.657 0 4.248 2.124 4.248 4.634 0 2.527-1.593 4.651-4.248 4.651-2.639 0-4.233-2.124-4.233-4.651zm6.291 0c0-1.372-.747-2.566-2.058-2.566s-2.042 1.192-2.042 2.566c0 1.391.731 2.581 2.042 2.581s2.058-1.19 2.058-2.581zm12.366 4.432l-2.125-3.408-.96 1.136v2.272h-2.11v-8.847h2.11v3.94l3.036-3.94h2.589l-3.17 4.014 3.269 4.833h-2.639zm13.414 0h-6.309v-8.847h2.108v6.813h3.32v-6.813h2.11v6.813h.877v4.288h-2.106v-2.254zm2.504-4.431c0-2.564 1.71-4.636 4.15-4.636 2.39 0 4.019 1.978 4.019 4.872v.513h-5.959c.133 1.116.947 2.05 2.306 2.05.681 0 1.628-.329 2.143-.88l.928 1.503c-.795.805-2.058 1.228-3.303 1.228-2.439 0-4.284-1.814-4.284-4.65zm4.15-2.785c-1.311 0-1.875 1.08-1.975 1.96h3.952c-.051-.841-.581-1.96-1.977-1.96zm4.382 5.531c.65 0 1.03-.732 1.279-2.877l.515-4.284h6.49v8.845h-2.107v-6.813h-2.54l-.266 2.528c-.332 3.057-1.326 4.505-3.371 4.505V89.79zm9.961 1.685v-8.847h2.107v5.347l3.305-5.347h2.126v8.847h-2.11v-5.548l-3.402 5.548h-2.026zM27.589 0c5.655 0 7.433 4.459 8.918 8.922l15.76 47.513c.123.374.042.978-.476 1.199l-8.576 3.661c-.423.175-.898-.085-1.053-.543l-3.678-11.199H16.72l-3.703 11.199c-.146.443-.604.742-1.05.543l-8.57-3.661c-.438-.18-.64-.732-.484-1.199L18.66 8.922C20.093 4.529 21.937 0 27.589 0zM1.751 79.258c-.458 0-.825.416-.825.93v10.347c0 .518.367.931.825.931h51.677c.453 0 .816-.411.816-.931V80.188c0-.514-.363-.93-.816-.93H1.751zm25.796-64.792l-7.362 24.331h14.838l-7.387-24.33h-.09zM228.619 49.58c0 2.934-1.475 4.863-4.188 4.863-1.076 0-1.957.002-3.36-.416v-8.879c.619-.11 1.9-.329 3.36-.272 2.757.116 4.188 1.537 4.188 4.704zm5.575-.436c0-5.439-2.894-9.185-8.975-9.185-1.493 0-2.535.158-4.146.577l-.012-7.772c1.002-.158 2.719-.296 4.609-.296 1.787 0 4.05.107 6.039.374l.143-4.537c-2.263-.555-5.538-.9-8.08-.9-2.505 0-6.401.689-8.255 1.245l-.001 28.88c2.889 1.165 5.71 1.7 8.609 1.7 6.627.002 10.069-3.87 10.069-10.085zm-62.801-1.573c0 4.036-1.46 6.636-3.864 6.636-1.009 0-1.542-.056-2.684-.467V41.617c1.253-.657 1.927-.649 2.936-.649 2.408.003 3.612 2.185 3.612 6.602zm-18.314.134c0-4.41 1.206-6.735 3.61-6.735 1.014 0 1.687-.01 2.938.649v12.123c-1.135.409-1.672.467-2.686.467-2.741-.002-3.862-2.466-3.862-6.504zm11.766 18.16V57.98c.664.431 1.989 1.065 4.219 1.065 4.439 0 7.706-4.057 7.706-11.474 0-7.998-3.246-11.416-8.585-11.416-1.356 0-2.238.151-3.34.729v-9.425h-5.218v9.425c-1.096-.577-1.983-.729-3.339-.729-5.34 0-8.591 3.559-8.591 11.552 0 7.422 2.938 11.338 7.702 11.338 2.24 0 3.563-.633 4.226-1.065v7.884h5.22zm-44.556-7.187V41.422c-1.384-.226-1.617-.275-2.732-.275-1.109 0-1.384.049-2.774.275v7.968c0 6.407-1.584 8.426-5.79 9.727l-1.429-3.376c1.058-.771 1.445-1.771 1.733-2.607.292-.949.339-1.834.339-4.78V37.523c2.878-.944 5.037-1.35 7.921-1.35s5.098.406 7.974 1.35V58.68l-5.242-.002zm69.281-4.642c-1.151.438-1.909.537-2.819.537-1.875 0-2.94-.812-2.94-2.931 0-2.199 1.345-2.948 3.943-2.948.622 0 1.253.104 1.546.217v1.581c0 1.707.077 2.817.27 3.544zm6.655 2.53c-1.379-2.314-1.739-3.681-1.739-6.594v-5.915c0-3.194-.337-4.367-1.105-5.537-1.06-1.647-2.836-2.352-6.104-2.352-2.307 0-4.576.272-6.742.878l.774 4.239c1.477-.226 3.01-.421 4.122-.421 3.467 0 3.869.557 3.869 3.415v1.075c-.771-.228-1.641-.394-2.65-.394-5.24 0-7.997 2.817-7.997 7.458 0 4.368 2.944 6.747 6.557 6.747 1.344 0 2.741-.272 3.849-.767.664-.323.959-.504 1.823-1.134.526.846 1.566 1.7 1.993 1.851l3.35-2.547zm50.718-2.53c-1.15.438-1.909.537-2.824.537-1.88 0-2.933-.812-2.933-2.931 0-2.199 1.344-2.948 3.941-2.948.628 0 1.255.104 1.541.217v1.581c-.001 1.707.082 2.817.275 3.544zm6.656 2.53c-1.387-2.314-1.746-3.681-1.746-6.594v-5.915c0-3.194-.327-4.367-1.101-5.537-1.063-1.647-2.834-2.352-6.105-2.352-2.315 0-4.573.272-6.743.878l.777 4.239c1.468-.226 3.013-.421 4.121-.421 3.463 0 3.863.557 3.863 3.415v1.075a9.17 9.17 0 0 0-2.647-.394c-5.24 0-7.997 2.817-7.997 7.458 0 4.368 2.951 6.747 6.555 6.747 1.343 0 2.743-.272 3.848-.767.669-.323.959-.504 1.822-1.134.524.846 1.574 1.7 2 1.851l3.353-2.547zm-113.341-5.492c0 2.167-.692 3.651-3.211 3.651-.848 0-1.195 0-2.296-.34v-6.332c1.365-.29 1.487-.34 2.296-.34 2.406 0 3.211 1.287 3.211 3.361zm-10.739-14.553l-.022 21.001c2.484 1.155 5.214 1.671 7.638 1.671 5.563 0 8.542-3.167 8.542-8.385 0-4.724-2.637-7.647-7.563-7.647-1.252 0-1.984.182-3.358.548v-7.188h-5.237zm137.822 22.157v-8.969h-5.93v8.969h-5.233V36.722h5.233v8.301h5.93v-8.3h5.243V58.68h-5.243zm20.873 0l-2.701-6.84c-.794-1.739-1.053-2.147-2.55-2.147l-.713.012v8.975h-5.26V36.722h5.26v8.297h.879c1.357 0 1.605-.516 2.109-1.674l1.372-3.131c.461-1.041.834-1.926 1.378-2.523.695-.779 1.429-1.219 2.846-1.314.858-.056 1.69-.053 2.441.056l-.269 3.996s-.702-.194-1.218.321c-.524.506-.787.965-1.686 3.113-.926 2.192-1.787 2.916-2.868 3.138v.1c1.618.426 2.341 1.613 3.132 3.34l3.56 8.239h-5.712zm-188.153-.003h6.038l-9.117-30.69c-.959-.355-2.157-.577-3.422-.577-1.383 0-1.875.202-2.961.577l-9.669 30.69h5.783l1.724-6.028h9.997l1.627 6.028zM89.905 47.506l1.923-7.112 1.684-6.444h.165l1.538 6.407 1.831 7.147-7.14.002zm118.44.192c0 2.045-1.496 3.687-3.338 3.687s-3.345-1.642-3.345-3.687c0-2.024 1.5-3.681 3.345-3.681s3.338 1.658 3.338 3.682z"/></g><defs><clipPath id="A"><path fill="#fff" transform="translate(.926)" d="M0 0h293v95H0z"/></clipPath></defs></svg>