<svg xmlns="http://www.w3.org/2000/svg" width="42" height="42" fill="none" xmlns:v="https://vecta.io/nano"><path d="M18.288 33.443l.003.003.906.92c1.169 1.195 3.071 1.201 4.235-.002L34.4 23.138h0a3.06 3.06 0 0 0-.002-4.27L23.431 7.626h0c-1.166-1.194-3.069-1.201-4.233 0l-.906.92h0l-.007.007a3.08 3.08 0 0 0 .052 4.321l4.497 4.417H10.184c-1.674 0-2.984 1.377-2.984 3.032v1.355c0 1.656 1.31 3.032 2.984 3.032h12.649l-4.497 4.417a3.07 3.07 0 0 0-.048 4.316zM21.426 1c10.75 0 19.5 8.929 19.5 20s-8.75 20-19.5 20-19.5-8.929-19.5-20 8.75-20 19.5-20z" stroke="#ffdf7b" stroke-width="2"/></svg>