<svg xmlns="http://www.w3.org/2000/svg" width="43" height="42" fill="none" xmlns:v="https://vecta.io/nano"><path d="M25.114 8.548l-.003-.003-.928-.92c-1.186-1.184-3.106-1.189-4.286.002L8.661 18.853h0c-1.184 1.184-1.19 3.105.002 4.287l11.235 11.235c1.183 1.183 3.104 1.19 4.285 0l.928-.92.003-.003c1.203-1.203 1.175-3.16-.049-4.333l-4.598-4.409h12.974a3.03 3.03 0 0 0 3.032-3.032v-1.355a3.03 3.03 0 0 0-3.032-3.032H20.467l4.598-4.409c1.224-1.174 1.252-3.131.049-4.333zM21.926 41a20 20 0 1 1 0-40 20 20 0 1 1 0 40z" stroke="#ffdf7b" stroke-width="2"/></svg>