<svg xmlns="http://www.w3.org/2000/svg" width="335" height="102" fill="none" xmlns:v="https://vecta.io/nano"><g clip-path="url(#A)" fill="#ed1c24"><path d="M212.573 38.616c4.422-1.073 7.371-4.973 7.371-9.849 0-5.851-4.076-10.044-9.711-10.044h-9.018c-.693 0-1.214.585-1.214 1.365s.521 1.365 1.214 1.365h8.757c4.336 0 7.371 3.023 7.371 7.411s-3.035 7.411-7.371 7.411h-8.757c-.693 0-1.214.585-1.214 1.365s.521 1.365 1.214 1.365h8.236l8.585 12.969c.347.488.779.78 1.213.78.695 0 1.301-.585 1.301-1.463 0-.39-.173-.878-.52-1.365l-7.457-11.312zm33.814 11.019h-17.253V35.983h14.74c.693 0 1.213-.585 1.213-1.365s-.52-1.268-1.213-1.268h-14.74V21.355h16.821c.693 0 1.213-.585 1.213-1.365s-.52-1.365-1.213-1.365h-18.122c-.78 0-1.3.585-1.3 1.463v30.717c0 .878.52 1.463 1.3 1.463h18.554c.695 0 1.215-.585 1.215-1.365 0-.682-.52-1.268-1.215-1.268zm26.62-29.645c0-.78-.52-1.365-1.215-1.365h-20.896c-.693 0-1.213.585-1.213 1.365s.52 1.365 1.213 1.365H260v29.742c0 .878.52 1.463 1.302 1.463s1.299-.585 1.299-1.463V21.355h9.191c.695 0 1.215-.585 1.215-1.365zm12.398-.195c-.347-.878-.867-1.365-1.56-1.365s-1.215.39-1.561 1.365L270.318 50.22c-.173.292-.259.585-.259.975 0 .78.52 1.365 1.299 1.365s1.041-.683 1.215-.975l3.901-9.946H291.3l3.903 9.947c.261.585.693.975 1.301.975.693 0 1.3-.585 1.3-1.463 0-.195-.087-.488-.173-.682l-12.226-30.62zm4.768 19.21h-12.832l6.417-16.382 6.415 16.382zm13.353-20.575c-.779 0-1.386.585-1.386 1.463V51c0 .878.52 1.56 1.386 1.56s1.388-.585 1.388-1.56V19.893c0-.878-.52-1.463-1.388-1.463zm28.353 31.205h-15.953V19.893c0-.78-.52-1.463-1.301-1.463s-1.302.585-1.302 1.463v31.01c0 .878.52 1.463 1.302 1.463h17.254c.693 0 1.214-.585 1.214-1.365-.087-.78-.607-1.365-1.214-1.365zM158.902 22.331h-6.936v29.644h8.584V31.4c.693-.975 2.601-2.048 4.162-2.048 2.514 0 3.988 1.56 3.988 4.291v18.333h8.497v-19.6c0-7.216-2.861-10.727-8.757-10.727-4.422 0-7.023 1.56-8.931 3.901l-.607-3.218zm-35.895 15.992c0 10.044 3.294 14.335 9.711 14.335 3.901 0 6.589-1.463 8.063-3.901l.434 3.316h6.936V23.598c-2.775-.975-5.983-1.853-11.965-1.853-8.497 0-13.179 5.851-13.179 16.577zm16.56 4.583c-.78.975-1.994 2.048-4.162 2.048-2.341 0-3.554-2.438-3.554-7.021 0-5.656 1.387-8.484 4.161-8.484 1.561 0 2.428.098 3.555.39v13.067zm-36.243-31.692h-8.583v40.761h8.583V31.4c.694-.975 2.602-2.048 4.162-2.048 2.515 0 3.989 1.56 3.989 4.291v18.333h8.584v-19.6c0-7.216-2.862-10.727-8.844-10.727-3.642 0-5.723.878-7.804 2.535v-12.97h-.087zm-24.71 25.744c0-4.291 2.168-7.021 6.416-7.021 2.254 0 4.075.683 5.636 1.853l1.214-8.094c-2.341-1.073-4.769-1.95-8.931-1.95-8.497 0-13.179 5.461-13.179 15.602s4.422 15.31 13.006 15.31c4.162 0 8.064-1.463 9.711-2.633l-1.214-7.509c-1.907 1.073-3.815 1.95-6.156 1.95-4.335-.098-6.503-3.023-6.503-7.509zM59.538 51.975h6.936V22.331H57.89v20.575c-.694.975-2.601 2.048-4.162 2.048-2.515 0-3.989-1.56-3.989-4.291V22.331h-8.584v19.6c0 7.216 2.861 10.727 8.844 10.727 4.422 0 7.023-1.56 8.93-3.901l.607 3.218zm-29.48 0h9.971c-3.902-12.092-9.537-29.254-13.959-40.761H14.885C10.463 22.721 4.828 39.981.926 51.975h9.971c.78-2.925 1.821-6.533 2.948-10.337h13.353l2.861 10.337zM24.943 33.74h-8.931c1.387-4.876 2.948-9.946 4.509-14.92 1.561 4.973 3.035 10.044 4.422 14.92zm163.786 30.132c-.693 0-1.3-.683-1.3-1.463V1.463c0-.78.607-1.463 1.3-1.463s1.301.683 1.301 1.463v60.946c0 .78-.607 1.463-1.301 1.463zm-82.977 37.933V76.841h9.191c.954 0 1.821.195 2.601.682a9.51 9.51 0 0 1 2.081 1.755 8.69 8.69 0 0 1 1.387 2.535c.347.975.521 1.853.521 2.828a10.23 10.23 0 0 1-.434 2.925c-.347.975-.78 1.755-1.3 2.535-.521.682-1.214 1.268-1.995 1.755s-1.647.683-2.601.683h-7.196v9.166h-2.255v.098zm2.168-11.409h7.11c.607 0 1.214-.195 1.734-.488s.954-.78 1.387-1.268c.347-.488.694-1.17.867-1.853s.347-1.365.347-2.145-.087-1.463-.347-2.243c-.26-.683-.52-1.268-.953-1.853-.434-.487-.867-.878-1.474-1.17-.521-.293-1.128-.487-1.735-.487h-6.936v11.507zm26.185 11.507c-1.561 0-2.948-.391-4.249-1.073s-2.341-1.658-3.295-2.828-1.647-2.535-2.08-4.096c-.521-1.56-.781-3.12-.781-4.68a14.84 14.84 0 0 1 .781-4.778c.521-1.56 1.3-2.828 2.167-3.998.954-1.17 2.081-2.145 3.295-2.828 1.301-.683 2.601-1.073 4.162-1.073s2.948.39 4.248 1.073c1.301.78 2.341 1.658 3.295 2.925.867 1.17 1.648 2.535 2.081 4.096a13.72 13.72 0 0 1 .781 4.583 14.87 14.87 0 0 1-.781 4.778c-.52 1.56-1.3 2.828-2.167 3.998-.954 1.17-1.995 2.048-3.295 2.73-1.301.878-2.688 1.171-4.162 1.171zm-8.151-12.58c0 1.365.174 2.633.607 3.901s.954 2.34 1.648 3.315a7.92 7.92 0 0 0 2.601 2.34c1.041.585 2.081.878 3.382.878 1.213 0 2.341-.293 3.381-.878a7.91 7.91 0 0 0 2.601-2.34c.694-.975 1.214-2.048 1.648-3.315.346-1.268.607-2.535.607-3.803 0-1.365-.174-2.633-.607-3.9s-.954-2.34-1.735-3.315c-.693-.975-1.56-1.755-2.601-2.34s-2.081-.878-3.294-.878a6.79 6.79 0 0 0-3.382.878 7.92 7.92 0 0 0-2.601 2.34c-.694.975-1.214 2.048-1.648 3.316a11.64 11.64 0 0 0-.607 3.803zm21.156-.195c0-1.463.26-3.023.694-4.486s1.127-2.828 2.081-3.998a9.75 9.75 0 0 1 3.295-2.828c1.3-.78 2.774-1.073 4.422-1.073 1.994 0 3.641.488 5.115 1.463 1.388.975 2.428 2.34 3.122 3.9l-1.734 1.17c-.347-.78-.781-1.463-1.301-2.048s-1.04-.975-1.647-1.365-1.214-.585-1.821-.78-1.214-.195-1.821-.195c-1.301 0-2.514.292-3.555.878s-1.907 1.365-2.601 2.34-1.214 2.048-1.561 3.315-.52 2.438-.52 3.706c0 1.365.173 2.73.607 3.998s1.04 2.34 1.734 3.316c.78.975 1.648 1.755 2.601 2.34 1.041.585 2.081.878 3.295.878a6.47 6.47 0 0 0 1.907-.293c.694-.195 1.301-.488 1.908-.878s1.214-.878 1.734-1.463.954-1.268 1.301-2.048l1.821 1.073c-.347.975-.867 1.755-1.474 2.438s-1.388 1.268-2.168 1.853c-.78.488-1.648.878-2.515 1.17s-1.734.39-2.601.39c-1.56 0-2.948-.39-4.161-1.17-1.301-.78-2.342-1.755-3.295-2.925s-1.648-2.535-2.168-4.096c-.434-1.463-.694-3.023-.694-4.583zm21.157 0c0-1.463.26-3.023.693-4.486s1.127-2.828 2.081-3.998a9.75 9.75 0 0 1 3.295-2.828c1.3-.78 2.774-1.073 4.422-1.073 1.994 0 3.641.488 5.115 1.463 1.388.975 2.428 2.34 3.122 3.9l-1.734 1.17c-.347-.78-.781-1.463-1.301-2.048s-1.04-.975-1.647-1.365-1.214-.585-1.821-.78-1.214-.195-1.821-.195c-1.3 0-2.514.292-3.555.878s-1.907 1.365-2.601 2.34-1.214 2.048-1.561 3.315-.52 2.438-.52 3.706c0 1.365.173 2.73.607 3.998s1.04 2.34 1.734 3.316c.781.975 1.648 1.755 2.601 2.34 1.041.585 2.081.878 3.295.878a6.48 6.48 0 0 0 1.908-.293c.693-.195 1.3-.488 1.907-.878s1.214-.878 1.734-1.463.954-1.268 1.301-2.048l1.821 1.073c-.347.975-.867 1.755-1.474 2.438s-1.388 1.268-2.168 1.853c-.78.488-1.647.878-2.515 1.17s-1.734.39-2.6.39c-1.561 0-2.949-.39-4.162-1.17-1.301-.78-2.342-1.755-3.295-2.925s-1.648-2.535-2.168-4.096c-.433-1.463-.693-3.023-.693-4.583zm25.144 8.971l13.7-21.258h1.82v24.964h-2.167V80.839l-13.527 20.868h-1.994V76.841h2.168v21.258zm33.034 3.706V91.761h-5.895l-5.377 10.044h-2.601l5.722-10.434c-.693-.292-1.299-.585-1.819-1.072s-1.041-.975-1.388-1.658c-.434-.585-.693-1.268-.954-2.048s-.346-1.56-.346-2.34a7.22 7.22 0 0 1 .521-2.73c.345-.878.779-1.658 1.385-2.34s1.302-1.268 2.17-1.658 1.733-.585 2.773-.585h7.978v24.963h-2.169v-.097zm0-22.819h-5.722c-.693 0-1.3.098-1.908.39s-1.127.683-1.473 1.17c-.433.487-.781 1.073-1.04 1.658s-.348 1.268-.348 2.048c0 .683.087 1.365.348 2.048.173.683.52 1.17.866 1.658s.867.878 1.387 1.17 1.214.487 1.908.487h5.895V78.986h.087z"/></g><defs><clipPath id="A"><path fill="#fff" transform="translate(.926)" d="M0 0h334v102H0z"/></clipPath></defs></svg>