<svg width="21" height="20" viewBox="0 0 21 20" fill="none" xmlns="http://www.w3.org/2000/svg">
<path d="M18.9258 7H9.92578C8.82121 7 7.92578 7.89543 7.92578 9V18C7.92578 19.1046 8.82121 20 9.92578 20H18.9258C20.0304 20 20.9258 19.1046 20.9258 18V9C20.9258 7.89543 20.0304 7 18.9258 7Z" fill="#6E6ADE"/>
<path d="M3.92578 13H2.92578C2.39535 13 1.88664 12.7893 1.51157 12.4142C1.13649 12.0391 0.925781 11.5304 0.925781 11V2C0.925781 1.46957 1.13649 0.960859 1.51157 0.585786C1.88664 0.210714 2.39535 0 2.92578 0H11.9258C12.4562 0 12.9649 0.210714 13.34 0.585786C13.7151 0.960859 13.9258 1.46957 13.9258 2V3" fill="#6E6ADE"/>
</svg>
