<svg xmlns="http://www.w3.org/2000/svg" width="45" height="72" fill="none" xmlns:v="https://vecta.io/nano"><style><![CDATA[.B{stroke-width:5}.C{stroke-linecap:round}.D{stroke-linejoin:round}]]></style><g stroke="#4951a1" class="B C D"><path d="M26.857 11.864v56.727"/><path d="M39.415 22.5H20.579c-2.331 0-4.567.934-6.215 2.596a8.9 8.9 0 0 0 0 12.535c1.648 1.662 3.884 2.596 6.215 2.596h12.557c2.331 0 4.567.934 6.215 2.596a8.9 8.9 0 0 1 0 12.535c-1.648 1.662-3.884 2.596-6.215 2.596H11.79"/></g><g stroke="#2d3691" class="B C D"><path d="M17.994 3v56.727"/><path d="M30.551 13.636H11.716c-2.331 0-4.567.934-6.215 2.596a8.9 8.9 0 0 0 0 12.535c1.648 1.662 3.884 2.596 6.215 2.596h12.557c2.331 0 4.567.934 6.215 2.596a8.9 8.9 0 0 1 0 12.535c-1.648 1.662-3.884 2.596-6.215 2.596H2.926"/></g></svg>