<svg xmlns="http://www.w3.org/2000/svg" width="71" height="74" fill="none" xmlns:v="https://vecta.io/nano"><g stroke="#4951a1" stroke-width="5" stroke-linejoin="round"><path d="M23.331 11.351l-8.927 11.93v41.754a5.97 5.97 0 0 0 1.743 4.218C17.263 70.372 18.777 71 20.355 71h41.661c1.578 0 3.092-.629 4.208-1.747a5.97 5.97 0 0 0 1.743-4.218V23.281l-8.927-11.93H23.331z"/><path d="M14.404 23.281h53.564m-14.879 11.93c0 3.164-1.254 6.198-3.486 8.436a11.89 11.89 0 0 1-16.833 0c-2.232-2.237-3.486-5.272-3.486-8.436" stroke-linecap="round"/></g><g stroke="#2d3691"><path d="M11.853 3L2.926 14.93v41.754a5.97 5.97 0 0 0 1.743 4.218c1.116 1.119 2.63 1.747 4.208 1.747h41.661c1.578 0 3.092-.628 4.208-1.747a5.97 5.97 0 0 0 1.743-4.218V14.93L47.563 3H11.853z" stroke-width="5" stroke-linejoin="round"/><path d="M2.926 14.93H56.49M41.611 26.86c0 3.164-1.254 6.198-3.486 8.436a11.89 11.89 0 0 1-16.834 0c-2.232-2.237-3.486-5.272-3.486-8.436" stroke-width="5" stroke-linejoin="round" stroke-linecap="round"/></g></svg>