<svg xmlns="http://www.w3.org/2000/svg" width="75" height="36" fill="none" xmlns:v="https://vecta.io/nano"><g clip-path="url(#A)" fill="#fff"><path d="M4.992 10.867l.533-.267 10.6-5.533c-.133-.733-.867-1.267-1.6-1.2l-9.733.8c-.8.067-1.4.8-1.333 1.6l.133 1.4c.067.8-.467 1.533-1.267 1.6l-1.4.067 2.133 21.6 1.867-19.467.067-.6zm10.867 5.8h-2.6V19.8h2.6c1 0 1.733-.6 1.733-1.533 0-1-.8-1.6-1.733-1.6zM28.126 0L6.059 11.467 3.659 36l22-1.733 12.4-.933 7.933-.667 2.4-24.533L28.126 0zM17.793 26.067l-2.533-4.133h-2.067v4.133h-2.467v-11.6h5.4c2.4 0 3.867 1.6 3.867 3.733 0 2.067-1 3.133-2.267 3.4l2.867 4.4h-2.8v.067zm12.533-9.4h-5.733v2.467h5.067v2.133h-5.067v2.6h5.733V26h-8.133V14.467h8.2v2.2h-.067zm12.467 7.4c-1.2 1.333-2.8 2.2-4.933 2.2-3.4 0-6.133-2.333-6.133-6s2.8-6 6.133-6c2.4 0 3.933 1.2 4.8 2.6L40.593 18c-.533-.8-1.533-1.533-2.733-1.533-2.067 0-3.6 1.6-3.6 3.8s1.533 3.8 3.6 3.8c1 0 2-.467 2.467-.867v-1.267H37.26v-2.2h5.533v4.333zm6 .8c0-.733.667-1.4 1.4-1.4s1.4.667 1.4 1.4-.667 1.4-1.4 1.4-1.4-.667-1.4-1.4zm11.8 1.2l-2.8-4.133h-1.8v4.133h-2.467v-11.6h5.4c2.4 0 3.867 1.6 3.867 3.733 0 2.067-1.267 3.133-2.533 3.4l3.067 4.4h-2.733v.067zm-.267-7.867c0-1-.733-1.533-1.733-1.533h-2.6V19.8h2.6c1 0 1.733-.6 1.733-1.6zm4.333 3.267v-7h2.467v6.867c0 1.6.667 2.733 2.467 2.733s2.467-1.133 2.467-2.733v-6.867h2.533V21.4c0 2.867-1.467 4.867-4.933 4.867-3.533 0-5-2-5-4.8z"/></g><defs><clipPath id="A"><path fill="#fff" transform="translate(.926)" d="M0 0h74v36H0z"/></clipPath></defs></svg>