<svg xmlns="http://www.w3.org/2000/svg" width="320" height="98" fill="none" xmlns:v="https://vecta.io/nano"><g clip-path="url(#A)"><g fill="#747679"><path d="M163.001 23.668h8.519v7.99h-8.519v-7.99zm0 12.638h8.519v33.598h-8.519V36.305zm21.487 5.369h.188c1.942-3.799 4.134-5.764 7.893-5.764.939 0 1.503.066 2.005.262v7.794h-.189c-5.574-.589-9.584 2.489-9.584 9.562v16.374h-8.519V36.305h8.206v5.371zm26.684-18.007h8.518v7.99h-8.518v-7.99zm0 12.638h8.52v33.598h-8.52V36.305zm21.611 4.583h.187c2.193-3.602 5.137-5.501 9.522-5.501 6.64 0 11.088 5.239 11.088 12.575v21.94h-8.52V49.272c0-3.602-2.005-6.157-5.576-6.157-3.756 0-6.514 3.144-6.514 7.729v19.059h-8.518V36.305h8.331v4.585zm24.304 12.182c0-9.955 6.451-17.683 15.847-17.683 10.337 0 15.849 8.252 15.849 20.237H265.48c.626 5.174 3.382 8.383 8.207 8.383 3.319 0 5.26-1.572 6.2-4.127h8.395c-1.191 5.96-6.266 11.004-14.534 11.004-10.648 0-16.661-7.795-16.661-17.814zm8.518-3.602h14.282c-.25-4.258-2.943-7.205-6.828-7.205-4.51 0-6.703 2.817-7.454 7.205zm25.139 9.561h7.894c.563 3.864 3.194 5.567 7.016 5.567 3.759 0 5.889-1.507 5.889-3.864 0-3.209-4.072-3.537-8.457-4.453-5.764-1.179-11.401-2.817-11.401-10.152 0-7.27 5.762-10.741 13.091-10.741 8.457 0 13.154 4.388 13.783 11.134h-7.706c-.376-3.602-2.57-4.912-6.202-4.912-3.32 0-5.512 1.31-5.512 3.733 0 2.881 4.26 3.144 8.833 4.127 5.387 1.179 11.337 2.751 11.337 10.61 0 6.746-5.512 10.807-13.53 10.807-9.334-.001-14.534-4.716-15.035-11.856zM142.901 23.668h-9.916l-17.927 46.236h10.148l3.32-9.496h18.291l3.383 9.496h10.211l-17.51-46.235zm-11.933 28.945l6.578-19.649 6.765 19.648h-13.343 0zm75.443-28.945h-8.519v46.236h8.519V23.668z"/></g><path fill-rule="evenodd" d="M93.434 48.289c0 26.494-20.389 47.947-45.557 47.947S2.292 74.784 2.292 48.289 22.705.322 47.877.322s45.557 21.473 45.557 47.968zM78.089 23.257H55.792l-3.169 8.337h7.391l5.865-.083 1.313-.029c-1.803 4.34-12.668 33.478-12.668 33.478h9.196l15.214-40.075c.404-.849.203-1.628-.845-1.628zM29.35 24.992c3.371-1.317 8.028-1.734 15.206-1.734h6.475l-3.168 8.338h-4.437c-4.766 0-7.825.015-9.476.592-1.607.524-2.794 1.159-3.441 2.156-.598.806-.8 1.907-.8 2.862 0 1.001.104 1.947 1.045 3.22 1.161 1.219 3.073 2.794 6.825 5.222 7.479 4.911 9.691 8.809 9.691 13.939 0 8.348-7.481 16.319-20.019 16.319-3.769 0-9.029-.581-11.246-1.325l-1.164-.36c.454-1.588 1.943-5.966 2.599-7.816l1.176.312c2.464.635 6.321 1.007 8.881 1.007 7.336 0 10.187-3.486 10.187-6.548 0-2.798-1.452-4.332-8.731-8.976-6.822-4.437-9.179-8.295-9.179-13.623 0-6.396 3.912-11.263 9.577-13.585z" fill="#bed600"/></g><defs><clipPath id="A"><path fill="#fff" transform="translate(.926)" d="M0 0h319v98H0z"/></clipPath></defs></svg>