<svg width="82" height="65" viewBox="0 0 82 65" fill="none" xmlns="http://www.w3.org/2000/svg">
<path d="M21.3627 30.1832C33.4914 31.714 61.9944 45.5356 66.4925 64.9999H8.29883C23.0699 63.7843 35.6885 44.44 21.3627 30.1832ZM26.1132 7.37231C30.9083 12.7149 33.1945 19.9633 33.0015 27.4219C45.3082 32.4793 63.7758 45.9858 67.6802 64.9999H81.9317C75.8896 32.5694 41.3742 9.69843 26.1132 7.37231Z" fill="#3E459A" fill-opacity="0.6"/>
<path d="M13.9897 22.8109C26.1183 24.3416 54.6214 38.1632 59.1195 57.6276H0.925781C15.6969 56.412 28.3154 37.0677 13.9897 22.8109ZM18.7402 0C23.5352 5.34255 25.8214 12.591 25.6284 20.0496C37.9352 25.107 56.4028 38.6135 60.3071 57.6276H74.5586C68.5166 25.1971 34.0012 2.32611 18.7402 0Z" fill="#2D3691"/>
</svg>
